<?xml version="1.0" encoding="UTF-8"?>
<svg width="53px" height="53px" viewBox="0 0 53 53" version="1.1" xmlns="http://www.w3.org/2000/svg" xmlns:xlink="http://www.w3.org/1999/xlink">
    <title>添加上传</title>
    <g id="页面-1" stroke="none" stroke-width="1" fill="none" fill-rule="evenodd">
        <g id="Earn-已连钱包-未上传模型" transform="translate(-1149.000000, -422.000000)" fill="#FA1AFF">
            <g id="编组-5备份" transform="translate(651.000000, 243.000000)">
                <g id="添加上传" transform="translate(498.000000, 179.000000)">
                    <circle id="椭圆形" opacity="0.146201724" cx="26.5" cy="26.5" r="26.5"></circle>
                    <g id="加备份" transform="translate(18.000000, 18.000000)" fill-rule="nonzero">
                        <path d="M9,0 C9.5301,0 9.96,0.4299 9.96,0.96 L9.96,0.96 L9.959,8.039 L17.04,8.04 C17.5322357,8.04 17.9380745,8.41067908 17.9935401,8.88806097 L18,9 C18,9.5301 17.5701,9.96 17.04,9.96 L17.04,9.96 L9.959,9.959 L9.96,17.04 C9.96,17.5322357 9.58932092,17.9380745 9.11193903,17.9935401 L9,18 C8.4699,18 8.04,17.5701 8.04,17.04 L8.04,17.04 L8.039,9.959 L0.96,9.96 C0.467764286,9.96 0.0619255102,9.58932092 0.00645994898,9.11193903 L0,9 C0,8.4699 0.4299,8.04 0.96,8.04 L0.96,8.04 L8.039,8.039 L8.04,0.96 C8.04,0.467764286 8.41067908,0.0619255102 8.88806097,0.00645994898 Z" id="形状结合"></path>
                    </g>
                </g>
            </g>
        </g>
    </g>
</svg>