<?xml version="1.0" encoding="UTF-8"?>
<svg width="20px" height="20px" viewBox="0 0 20 20" version="1.1" xmlns="http://www.w3.org/2000/svg" xmlns:xlink="http://www.w3.org/1999/xlink">
    <title>叉</title>
    <g id="页面-1" stroke="none" stroke-width="1" fill="none" fill-rule="evenodd" opacity="0.8">
        <g id="My-profiley输入弹框" transform="translate(-1316.000000, -509.000000)" fill="#FFFFFF" fill-rule="nonzero">
            <g id="编组-5" transform="translate(585.000000, 509.000000)">
                <g id="叉" transform="translate(731.000000, 0.000000)">
                    <path d="M11.1762737,10.0146638 L19.7269782,1.44882027 C19.9542021,1.24263465 20.0495738,0.927884891 19.9750844,0.630009422 C19.900595,0.332133954 19.6683524,0.0995507833 19.3709131,0.0249521683 C19.0734737,-0.0496464466 18.7591849,0.0458650863 18.5533011,0.273422192 L10,8.83666529 L1.44669886,0.273422192 C1.24081514,0.0458650863 0.926526251,-0.0496464466 0.629086941,0.0249521683 C0.331647632,0.0995507833 0.0994050176,0.332133954 0.0249156325,0.630009422 C-0.0495737526,0.927884891 0.0457979291,1.24263465 0.273021838,1.44882027 L8.82372635,10.0146638 L0.273021838,18.5805073 C0.116991875,18.7361669 0.029284678,18.9476465 0.029284678,19.1682064 C0.029284678,19.3887663 0.116991875,19.6002459 0.273021838,19.7559054 C0.428453428,19.9121642 0.639623367,20 0.85986035,20 C1.08009733,20 1.29126727,19.9121642 1.44669886,19.7559054 L10,11.1926623 L18.5533011,19.7559054 C18.7087327,19.9121642 18.9199027,20 19.1401397,20 C19.3603766,20 19.5715466,19.9121642 19.7269782,19.7559054 C19.8830081,19.6002459 19.9707153,19.3887663 19.9707153,19.1682064 C19.9707153,18.9476465 19.8830081,18.7361669 19.7269782,18.5805073 L11.1762737,10.0146638 Z" id="关闭"></path>
                </g>
            </g>
        </g>
    </g>
</svg>