<?xml version="1.0" encoding="UTF-8"?>
<svg width="30px" height="30px" viewBox="0 0 30 30" version="1.1" xmlns="http://www.w3.org/2000/svg" xmlns:xlink="http://www.w3.org/1999/xlink">
    <title>形状结合</title>
    <g id="页面-1" stroke="none" stroke-width="1" fill="none" fill-rule="evenodd">
        <g id="home登录后下拉框" transform="translate(-489.000000, -856.000000)" fill="#FFFFFF">
            <path d="M504,856 C512.284271,856 519,862.715729 519,871 C519,879.284271 512.284271,886 504,886 C495.715729,886 489,879.284271 489,871 C489,862.715729 495.715729,856 504,856 Z M506.859939,863.001096 C506.833742,862.995983 506.807375,863.009084 506.79453,863.033596 C506.608196,863.3887 506.439046,863.753451 506.287726,864.126456 C504.772296,863.884913 503.230826,863.884913 501.715397,864.126456 C501.563074,863.752504 501.391214,863.387662 501.200599,863.033596 C501.187219,863.00967 501.161259,862.996778 501.135156,863.001096 C499.729158,863.25563 498.360665,863.701119 497.064122,864.32635 C497.053023,864.33129 497.043658,864.339726 497.037319,864.350492 C494.444487,868.416145 493.734212,872.381833 494.082649,876.298414 C494.084629,876.317808 494.094019,876.335529 494.108669,876.347521 C495.618451,877.521293 497.307161,878.417242 499.102734,878.997135 C499.128631,879.005292 499.156627,878.995659 499.172905,878.972992 C499.558555,878.422019 499.90027,877.838588 500.194575,877.228631 C500.202755,877.2117 500.203645,877.191904 500.197021,877.17424 C500.190397,877.156576 500.176892,877.142731 500.159915,877.136202 C499.621055,876.919713 499.099376,876.658741 498.599773,876.355736 C498.581343,876.344359 498.569525,876.324086 498.568262,876.301677 C498.566999,876.279268 498.576457,876.257672 498.593481,876.244092 C498.698609,876.161639 498.801914,876.076652 498.903312,875.989199 C498.921452,875.973511 498.94649,875.969969 498.967938,875.980056 C502.241045,877.548524 505.784629,877.548524 509.018994,875.980056 C509.040507,875.969319 509.065986,875.972559 509.084436,875.988378 C509.18595,876.076293 509.289519,876.161557 509.39505,876.244092 C509.412164,876.257533 509.421772,876.279047 509.420666,876.301458 C509.419559,876.323868 509.407886,876.344225 509.389539,876.355736 C508.891073,876.66129 508.368921,876.922099 507.828649,877.13538 C507.811681,877.14216 507.798269,877.156213 507.791775,877.174016 C507.785281,877.191818 507.786322,877.211683 507.794636,877.228631 C508.093868,877.835196 508.43508,878.417892 508.815524,878.972028 C508.831359,878.995339 508.859617,879.005407 508.885694,878.997028 C510.684485,878.419101 512.376146,877.523069 513.88782,876.347521 C513.902711,876.336111 513.912193,876.318514 513.913841,876.299235 C514.330985,871.77126 513.215471,867.838072 510.956892,864.351314 C510.951333,864.340004 510.942121,864.331141 510.930905,864.326314 C509.634192,863.701621 508.265788,863.256166 506.859939,863.001096 Z M500.683386,869.682184 C501.692403,869.682184 502.496522,870.640043 502.480773,871.797867 C502.480773,872.964085 501.684512,873.913623 500.683386,873.913623 C499.697941,873.913623 498.885965,872.964085 498.885965,871.797939 C498.885965,870.631793 499.682192,869.682184 500.683386,869.682184 Z M507.328988,869.682184 C508.338073,869.682184 509.142158,870.640043 509.126409,871.797867 C509.126409,872.964085 508.338073,873.913623 507.328988,873.913623 C506.343576,873.913623 505.531601,872.964085 505.531601,871.797939 C505.531601,870.631793 506.327828,869.682184 507.328988,869.682184 Z" id="形状结合"></path>
        </g>
    </g>
</svg>