<?xml version="1.0" encoding="UTF-8"?>
<svg width="15px" height="16px" viewBox="0 0 15 16" version="1.1" xmlns="http://www.w3.org/2000/svg" xmlns:xlink="http://www.w3.org/1999/xlink">
    <title>下载</title>
    <g id="页面-1" stroke="none" stroke-width="1" fill="none" fill-rule="evenodd" fill-opacity="0.8">
        <g id="My-profiley详情弹窗" transform="translate(-1485.000000, -1077.000000)" fill="#FFFFFF" fill-rule="nonzero">
            <g id="编组-5" transform="translate(350.000000, 746.000000)">
                <g id="编组-3备份-15" transform="translate(1081.000000, 321.000000)">
                    <g id="下载" transform="translate(54.000000, 10.000000)">
                        <path d="M8.12576274,10.2508031 L12.8636807,5.53072236 C13.1050515,5.29026019 13.4963911,5.29026019 13.7377619,5.53072237 C13.9791328,5.77118454 13.9791328,6.16105076 13.7377619,6.40151294 L8.00656984,12.1111284 C7.72947861,12.3775463 7.29038687,12.3775463 7.01329564,12.1111284 L1.26223805,6.41140829 C1.10609846,6.25585653 1.045119,6.02913491 1.10227006,5.81664725 C1.15942111,5.6041596 1.32602007,5.43818785 1.53931071,5.38125196 C1.75260135,5.32431606 1.98017976,5.38506594 2.13631934,5.54061771 L6.87423726,10.2606985 L6.87423726,0.701792785 C6.8437505,0.462159972 6.95496099,0.226549096 7.15966134,0.0970924699 C7.3643617,-0.0323641566 7.62570556,-0.0323641566 7.83040591,0.0970924699 C8.03510627,0.226549096 8.14631676,0.462159972 8.11583,0.701792785 L8.12576274,10.2508031 Z M0.54708063,16 C0.234404557,15.9605194 0,15.6955317 0,15.3815408 C0,15.0675499 0.234404557,14.8025621 0.54708063,14.7630816 L14.4529194,14.7630816 C14.7655954,14.8025621 15,15.0675499 15,15.3815408 C15,15.6955317 14.7655954,15.9605194 14.4529194,16 L0.54708063,16 Z" id="形状"></path>
                    </g>
                </g>
            </g>
        </g>
    </g>
</svg>