<?xml version="1.0" encoding="UTF-8"?>
<svg width="15px" height="16px" viewBox="0 0 15 16" version="1.1" xmlns="http://www.w3.org/2000/svg" xmlns:xlink="http://www.w3.org/1999/xlink">
    <title>橡皮擦</title>
    <defs>
        <linearGradient x1="0%" y1="81.137599%" x2="100%" y2="81.137599%" id="linearGradient-1">
            <stop stop-color="#FA1AFF" offset="0%"></stop>
            <stop stop-color="#0D50FE" offset="100%"></stop>
        </linearGradient>
    </defs>
    <g id="页面-1" stroke="none" stroke-width="1" fill="none" fill-rule="evenodd">
        <g id="Earn-已连钱包-未上传模型" transform="translate(-1124.000000, -366.000000)" fill="url(#linearGradient-1)" fill-rule="nonzero">
            <g id="编组-5备份" transform="translate(651.000000, 243.000000)">
                <g id="橡皮擦" transform="translate(473.000000, 123.000000)">
                    <path d="M14.450202,14.9590894 L5.8994477,14.9590894 C5.9854814,14.9042574 6.06795999,14.8425937 6.14172855,14.7679862 L8.12423651,12.7629299 C8.26804077,12.816144 8.42019954,12.8479646 8.57786874,12.8479646 C8.9301803,12.8479646 9.26151669,12.7093563 9.51073001,12.4573085 L14.6133816,7.29662132 C14.8625949,7.04457354 15,6.70964843 15,6.35279049 C15,5.99665165 14.8627727,5.66154677 14.6135594,5.40931921 L9.65026814,0.389936977 C9.1358435,-0.130158754 8.299148,-0.129799199 7.78472335,0.389936977 L2.68207175,5.55080395 C2.30754075,5.92941494 2.20924191,6.48007282 2.37988727,6.95288712 L0.39737931,8.95812313 C-0.116867576,9.47821886 -0.134287622,10.3068124 0.358450839,10.8056944 L4.31511224,14.8073574 C4.37163851,14.8645266 4.43314194,14.9148642 4.49802273,14.9590894 L0.533717838,14.9590894 C0.24948667,14.9590894 0.0191154412,15.1922606 0.0191154412,15.4795447 C0.0191154412,15.7668288 0.24948667,16 0.533717838,16 L14.450202,16 C14.7344332,16 14.9648044,15.7668288 14.9648044,15.4795447 C14.9648044,15.1922606 14.7344332,14.9590894 14.450202,14.9590894 Z M3.40980308,6.28681222 L8.51227693,1.1263048 C8.56898096,1.06895584 8.64328279,1.04019147 8.71758463,1.04019147 C8.79188646,1.04019147 8.86601053,1.06895584 8.92253681,1.12594525 L13.8856503,6.14550726 C13.940399,6.20105845 13.9706175,6.27458736 13.9706175,6.35297027 C13.9706175,6.43117339 13.940399,6.50470231 13.8856503,6.56043327 L8.78299868,11.7213002 C8.67350124,11.8316835 8.48223624,11.8324026 8.37309432,11.7213002 L3.40980308,6.70173823 C3.35505436,6.64618704 3.32483592,6.57265813 3.32483592,6.49427522 C3.32483592,6.4160721 3.35505436,6.3423634 3.40980308,6.28681222 Z M1.08635993,10.0696862 C0.996237851,9.97853909 1.01401341,9.80667199 1.12511064,9.69431118 L3.01909632,7.77842448 L7.3079829,12.1164507 L5.41399722,14.0319779 C5.3544491,14.0923831 5.27925849,14.1269003 5.20246808,14.129597 C5.1567849,14.1360689 5.09368167,14.1227654 5.04302133,14.0713491 L1.08635993,10.0696862 Z" id="形状"></path>
                </g>
            </g>
        </g>
    </g>
</svg>