<?xml version="1.0" encoding="UTF-8"?>
<svg width="15px" height="16px" viewBox="0 0 15 16" version="1.1" xmlns="http://www.w3.org/2000/svg" xmlns:xlink="http://www.w3.org/1999/xlink">
    <title>退出</title>
    <g id="页面-1" stroke="none" stroke-width="1" fill="none" fill-rule="evenodd" opacity="0.796321324">
        <g id="home登录后下拉框" transform="translate(-1450.000000, -172.000000)" fill="#FFFFFF" fill-rule="nonzero">
            <g id="退出" transform="translate(1450.000000, 172.000000)">
                <path d="M11.798597,2.29067537 C12.292624,2.64200968 12.7427882,3.05196404 13.1393577,3.51167595 C13.5278748,3.96344068 13.864736,4.45769405 14.1436058,4.98514002 C14.4237779,5.51512815 14.6376567,6.07799057 14.7803601,6.66087904 C14.925906,7.24759722 14.9996659,7.8500145 15,8.45473854 C15,9.49889639 14.801686,10.4785865 14.4050579,11.3938089 C14.0084299,12.3090312 13.472092,13.1061331 12.7960444,13.7851146 C12.1198288,14.464434 11.3264048,15.0032424 10.4157723,15.4015399 C9.50513984,15.7998374 8.53036176,15.9993241 7.49143807,16 C6.46359713,16 5.49444439,15.8006823 4.58397982,15.4020468 C3.69462841,15.0177966 2.88457795,14.4694677 2.19564757,13.785368 C1.51039147,13.1006289 0.963920744,12.2883815 0.586634033,11.3938089 C0.195547364,10.4787555 0,9.49906538 0,8.45473854 C-0.000613144912,7.86454084 0.0696675776,7.27643203 0.209316836,6.70320978 C0.346255368,6.13796637 0.545819168,5.58998067 0.804258912,5.06954799 C1.06344713,4.54971348 1.38424397,4.06338253 1.75964218,3.62117819 C2.1396006,3.17198893 2.56666471,2.76541855 3.03340259,2.40854236 C3.26148618,2.23737963 3.54780599,2.1644341 3.82934541,2.20576045 C4.01422581,2.22984081 4.20489945,2.40068456 4.22152358,2.60752211 C4.24923045,2.9540257 4.00465434,3.22828823 3.72884505,3.43968838 C2.90116526,4.04803411 2.26718169,4.79469401 1.82689432,5.67966807 C1.38660696,6.56464214 1.16671516,7.51552032 1.16721892,8.53230261 C1.16237941,9.37972596 1.33005041,10.2191686 1.65989745,10.9988911 C1.97654139,11.7538773 2.43513841,12.4401948 3.01048146,13.0201198 C3.58831181,13.5997905 4.27021119,14.0638377 5.01998521,14.3876303 C6.58736192,15.0613955 8.36025094,15.0613955 9.92762764,14.3876303 C11.4421863,13.7365159 12.649003,12.5228659 13.297035,10.9991446 C13.6333195,10.2210568 13.8041427,9.38078028 13.7985293,8.53230261 C13.8016929,7.51467624 13.5583204,6.51161115 13.0894853,5.60996179 C12.6232317,4.6995171 11.9394547,3.91994764 11.0996283,3.34133914 C10.8104693,3.1433733 10.5983858,2.86226687 10.6333972,2.51576329 C10.6585853,2.26963675 10.8044241,2.14213762 10.9943422,2.11400162 C11.2860199,2.07065698 11.5530134,2.12236637 11.798597,2.29143579 L11.798597,2.29067537 Z" id="路径"></path>
                <path d="M7.33325703,0 C7.51001752,-0.000134311152 7.67959145,0.0703996835 7.80467446,0.196085492 C7.92975747,0.3217713 8.00010341,0.492313386 8.00023697,0.670194413 L8.00023697,7.37948745 C7.99317832,7.74489359 7.69680776,8.03740139 7.33363485,8.03740139 C6.97046193,8.03740139 6.67409138,7.74489359 6.66703268,7.37948745 L6.66703268,0.670954851 C6.66696591,0.493073833 6.73711966,0.322451649 6.86206096,0.196623239 C6.98700225,0.0707948288 7.15649655,0 7.33325703,0 L7.33325703,0 Z" id="路径"></path>
            </g>
        </g>
    </g>
</svg>