<?xml version="1.0" encoding="UTF-8"?>
<svg width="30px" height="30px" viewBox="0 0 30 30" version="1.1" xmlns="http://www.w3.org/2000/svg" xmlns:xlink="http://www.w3.org/1999/xlink">
    <title>github-fill</title>
    <g id="页面-1" stroke="none" stroke-width="1" fill="none" fill-rule="evenodd">
        <g id="home登录后下拉框" transform="translate(-537.000000, -856.000000)" fill="#FFFFFF" fill-rule="nonzero">
            <g id="github-fill" transform="translate(537.000000, 856.000000)">
                <path d="M15.0016758,0 C6.7132164,-0.00344144651 0,6.88891538 0,15.3959152 C0,22.1230208 4.19953078,27.8414047 10.0480393,29.9414735 C10.8356608,30.1445949 10.7150039,29.569658 10.7150039,29.1771862 L10.7150039,26.509066 C6.16690873,27.056461 5.98257178,23.9648844 5.67757792,23.448474 C5.06088705,22.367455 3.60294939,22.0920361 4.0386549,21.5756258 C5.07429338,21.0282308 6.13004134,21.7133352 7.35336834,23.5689698 C8.23818568,24.9150794 9.9642498,24.6878588 10.8390124,24.464081 C11.0300525,23.6550381 11.4389454,22.9320637 12.0020109,22.3708977 C7.2896883,21.5033283 5.32566194,18.5494611 5.32566194,15.0378707 C5.32566194,13.3337166 5.87196961,11.7672718 6.94447548,10.5037878 C6.26075299,8.42093276 7.00815551,6.63759568 7.10870294,6.37250503 C9.0559714,6.19348278 11.0803262,7.80468307 11.2378505,7.93206429 C12.3438722,7.62566082 13.6074182,7.46385224 15.0217853,7.46385224 C16.4428555,7.46385224 17.7097531,7.63254629 18.8258295,7.9423925 C19.2045581,7.64631723 21.0814434,6.26233749 22.8912971,6.43103154 C22.9884929,6.69612219 23.7191375,8.43814644 23.075634,10.4934596 C24.1615462,11.7603864 24.714557,13.340602 24.714557,15.0481989 C24.714557,18.5666748 22.7371243,21.5239848 18.0113954,22.3777832 C18.7990169,23.1764979 19.2883477,24.2850588 19.2883477,25.5106727 L19.2883477,29.3837503 C19.3151603,29.6935965 19.2883477,30 19.7910848,30 C25.7267344,27.9446868 30,22.18499 30,15.399358 C30,6.88891538 23.283432,0 15.0016758,0 Z" id="路径"></path>
            </g>
        </g>
    </g>
</svg>