<?xml version="1.0" encoding="UTF-8"?>
<svg width="16px" height="10px" viewBox="0 0 16 10" version="1.1" xmlns="http://www.w3.org/2000/svg" xmlns:xlink="http://www.w3.org/1999/xlink">
    <title>链接</title>
    <g id="页面-1" stroke="none" stroke-width="1" fill="none" fill-rule="evenodd">
        <g id="My-profiley已经点" transform="translate(-1367.000000, -1582.000000)" fill="#FFFFFF" fill-rule="nonzero">
            <g id="编组-8" transform="translate(350.000000, 877.000000)">
                <g id="编组-3备份-8" transform="translate(970.000000, 458.000000)">
                    <g id="编组-7备份-4" transform="translate(15.000000, 235.000000)">
                        <g id="链接" transform="translate(32.000000, 12.000000)">
                            <path d="M8.26666667,7.24832215 L8.6,7.24832215 L8.6,5.90604027 L8.26666667,5.90604027 C7.06666667,5.90604027 6.13333333,4.96644295 6.13333333,3.75838926 L6.13333333,3.48993289 C6.13333333,2.28187919 7.06666667,1.34228188 8.26666667,1.34228188 L12.5333333,1.34228188 C13.7333333,1.34228188 14.6666667,2.28187919 14.6666667,3.48993289 L14.6666667,3.75838926 C14.6666667,4.89932886 13.7333333,5.90604027 12.5333333,5.90604027 L12.5333333,7.24832215 C14.4,7.24832215 16,5.70469799 16,3.75838926 L16,3.48993289 C16,1.54362416 14.4666667,0 12.5333333,0 L8.26666667,0 C6.33333333,0 4.8,1.54362416 4.8,3.48993289 L4.8,3.75838926 C4.8,5.70469799 6.33333333,7.24832215 8.26666667,7.24832215 Z" id="路径"></path>
                            <path d="M3.46666667,10 L7.73333333,10 C9.66666667,10 11.2,8.45637584 11.2,6.51006711 L11.2,6.24161074 C11.2,4.29530201 9.66666667,2.75167785 7.73333333,2.75167785 L7.4,2.75167785 L7.4,4.09395973 L7.73333333,4.09395973 C8.93333333,4.09395973 9.86666667,5.03355705 9.86666667,6.24161074 L9.86666667,6.51006711 C9.86666667,7.71812081 8.93333333,8.65771812 7.73333333,8.65771812 L3.46666667,8.65771812 C2.26666667,8.65771812 1.33333333,7.71812081 1.33333333,6.51006711 L1.33333333,6.24161074 C1.33333333,5.10067114 2.26666667,4.09395973 3.46666667,4.09395973 L3.46666667,2.75167785 C1.53333333,2.81879195 0,4.36241611 0,6.24161074 L0,6.51006711 C0,8.45637584 1.53333333,10 3.46666667,10 Z" id="路径"></path>
                        </g>
                    </g>
                </g>
            </g>
        </g>
    </g>
</svg>