<?xml version="1.0" encoding="UTF-8"?>
<svg width="30px" height="30px" viewBox="0 0 30 30" version="1.1" xmlns="http://www.w3.org/2000/svg" xmlns:xlink="http://www.w3.org/1999/xlink">
    <title>m</title>
    <g id="页面-1" stroke="none" stroke-width="1" fill="none" fill-rule="evenodd">
        <g id="home未登录" transform="translate(-585.000000, -856.000000)" fill="#FFFFFF" fill-rule="nonzero">
            <path d="M600,856 C591.716518,856 585,862.716518 585,871 C585,879.283482 591.716518,886 600,886 C608.283482,886 615,879.283482 615,871 C615,862.716518 608.283482,856 600,856 Z M608.571429,864.49442 L607.205357,865.803571 C607.084821,865.893973 607.027902,866.041295 607.051339,866.185268 L607.051339,875.81808 C607.027902,875.965402 607.084821,876.112723 607.205357,876.199777 L608.544643,877.508929 L608.544643,877.800223 L601.821429,877.800223 L601.821429,877.522321 L603.204241,876.179688 C603.341518,876.042411 603.341518,876.002232 603.341518,875.797991 L603.341518,868.003348 L599.491071,877.766741 L598.972098,877.766741 L594.492188,868.003348 L594.492188,874.549107 C594.452009,874.823661 594.549107,875.101562 594.743304,875.299107 L596.544643,877.478795 L596.544643,877.770089 L591.428571,877.770089 L591.428571,877.478795 L593.229911,875.299107 C593.424107,875.101562 593.507812,874.820312 593.464286,874.549107 L593.464286,866.982143 C593.487723,866.771205 593.407366,866.566964 593.246652,866.422991 L591.646205,864.49442 L591.646205,864.203125 L596.618304,864.203125 L600.455357,872.623884 L603.833705,864.209821 L608.571429,864.209821 L608.571429,864.49442 Z" id="m"></path>
        </g>
    </g>
</svg>