<?xml version="1.0" encoding="UTF-8"?>
<svg width="17px" height="16px" viewBox="0 0 17 16" version="1.1" xmlns="http://www.w3.org/2000/svg" xmlns:xlink="http://www.w3.org/1999/xlink">
    <title>物模型</title>
    <g id="页面-1" stroke="none" stroke-width="1" fill="none" fill-rule="evenodd" opacity="0.796321324">
        <g id="home登录后下拉框" transform="translate(-1449.000000, -124.000000)" fill="#FFFFFF" fill-rule="nonzero">
            <g id="物模型" transform="translate(1449.000000, 124.000000)">
                <path d="M14.4499627,12.8570935 C13.8870507,12.8573158 13.3777651,13.1938666 13.1528707,13.7142498 L10.4544208,13.7142498 C10.3432084,12.947979 9.8021484,12.3159169 9.06666281,12.0930815 L9.06666281,9.71418692 L12.4666417,9.71418692 C13.4039025,9.71418692 14.1666311,8.94503198 14.1666311,7.99987427 C14.1666311,7.05471656 13.4039025,6.28556161 12.4666417,6.28556161 L4.53335765,6.28556161 C3.59609681,6.28556161 2.83336822,7.05471656 2.83336822,7.99987427 C2.83336822,8.94503198 3.59609681,9.71418692 4.53335765,9.71418692 L7.93333652,9.71418692 L7.93333652,12.0930815 C7.1976921,12.3156698 6.65652537,12.9478566 6.54557848,13.7142498 L3.84712859,13.7142498 C3.57961111,13.093498 2.91657543,12.747537 2.25956347,12.8858848 C1.6025515,13.0242326 1.1322082,13.6088505 1.13337661,14.2856873 C1.13477534,14.9610121 1.60491956,15.543101 2.26046421,15.6811398 C2.91600885,15.8191787 3.57785851,15.4754551 3.84712859,14.8571249 L6.71557742,14.8571249 C7.03517544,15.5302783 7.71177123,16 8.49999966,16 C9.2882281,16 9.96482389,15.5302783 10.2844219,14.8571249 L13.1528707,14.8571249 C13.4203882,15.4778767 14.0834239,15.8238376 14.7404359,15.6854899 C15.3974478,15.5471421 15.8677911,14.9625241 15.8666227,14.2856873 C15.8666227,13.4966967 15.2323612,12.8570935 14.4499627,12.8570935 L14.4499627,12.8570935 Z M4.53335765,8.57131182 C4.23024559,8.55763861 3.99147613,8.30584586 3.99147613,7.99987427 C3.99147613,7.69390267 4.23024559,7.44210993 4.53335765,7.42843671 L12.4666417,7.42843671 C12.7697537,7.44210993 13.0085232,7.69390267 13.0085232,7.99987427 C13.0085232,8.30584586 12.7697537,8.55763861 12.4666417,8.57131182 L4.53335765,8.57131182 Z M8.49999966,14.8571249 C8.03136924,14.8571249 7.65000495,14.4725474 7.65000495,13.9999686 C7.65000495,13.5273897 8.03136924,13.1428122 8.49999966,13.1428122 C8.96863008,13.1428122 9.34999438,13.5273897 9.34999438,13.9999686 C9.34999438,14.4725474 8.96863008,14.8571249 8.49999966,14.8571249 Z" id="形状"></path>
                <path d="M4.25002608,11.9999371 L5.87011601,11.9999371 C6.18307542,11.9999371 6.43677916,11.7440958 6.43677916,11.4284996 C6.43677916,11.1129033 6.18307542,10.857062 5.87011601,10.857062 L4.25002608,10.857062 C2.52952608,10.8551724 1.13525263,9.44915153 1.13337879,7.71415549 C1.12570444,6.16506771 2.24431598,4.84400097 3.76269578,4.60896383 L4.09986035,4.55582014 L4.21035966,4.23010073 C4.83878909,2.38321457 6.56257837,1.14262364 8.5,1.14262364 C10.4369614,1.14207246 12.1602869,2.38260336 12.789073,4.23010073 L12.900139,4.55582014 L13.2373036,4.60896383 C14.7556834,4.84400097 15.8742949,6.16506771 15.8666205,7.71415549 C15.8666205,9.44675415 14.4680959,10.857062 12.7499732,10.857062 L11.0273173,10.857062 C10.7143579,10.857062 10.4606541,11.1129033 10.4606541,11.4284996 C10.4606541,11.7440958 10.7143579,11.9999371 11.0273173,11.9999371 L12.7499732,11.9999371 C15.093692,11.9999371 17,10.0776212 17,7.71415549 C17.0097608,5.72999941 15.6600715,4.00166046 13.7450337,3.54608998 C12.8717416,1.40081169 10.7999081,0 8.500283,0 C6.20065791,0 4.12882438,1.40081169 3.25553226,3.54608998 C1.34026919,4.00143343 -0.009700102,5.72983012 0,7.71415549 C0,10.0776212 1.90630732,11.9999371 4.25002608,11.9999371 Z" id="路径"></path>
            </g>
        </g>
    </g>
</svg>