<?xml version="1.0" encoding="UTF-8"?>
<svg width="15px" height="16px" viewBox="0 0 15 16" version="1.1" xmlns="http://www.w3.org/2000/svg" xmlns:xlink="http://www.w3.org/1999/xlink">
    <title>我的-个人资料</title>
    <g id="页面-1" stroke="none" stroke-width="1" fill="none" fill-rule="evenodd" opacity="0.796321324">
        <g id="home登录后下拉框" transform="translate(-1450.000000, -76.000000)" fill="#FFFFFF" fill-rule="nonzero">
            <g id="我的-个人资料" transform="translate(1450.000000, 76.000000)">
                <path d="M12.1527204,5.33358982 C12.1583454,3.91692156 11.6091572,2.55663743 10.6271841,1.55509648 C9.64521095,0.553555529 8.3118218,-0.00625184648 6.92339756,5.27110678e-05 C5.53506995,-0.0062539088 4.20178818,0.553587605 3.21998288,1.55516041 C2.23817759,2.55673322 1.6892263,3.91702136 1.69517821,5.33358982 C1.69517821,7.34865365 2.74145812,9.06627113 4.36759122,9.9542837 C2.09906133,10.8639287 0.455967256,12.8779109 0.0107417634,15.2888488 C-0.0465015142,15.5852135 0.12734844,15.9410675 0.477168469,15.9994752 L0.589534903,15.9994752 C0.871935844,16.011688 1.11988742,15.8094766 1.17044816,15.5257243 C1.68351754,12.7567691 4.06017362,10.7298075 6.86403416,10.6659917 L6.98064084,10.6659917 C9.76966053,10.6659917 12.1516169,8.23666622 12.1516169,5.33358982 L12.1527204,5.33358982 Z M2.85594467,5.33358982 C2.85594467,3.02216126 4.65804785,1.18440132 6.92339756,1.18440132 C8.00404597,1.17752305 9.04242559,1.61238929 9.80667421,2.39198006 C10.5709228,3.17157083 10.9973906,4.23095845 10.9909246,5.33358982 C10.9909246,7.58444749 9.18874727,9.42212513 6.9817009,9.4816144 L6.80785094,9.4816144 C4.59974451,9.36263586 2.85594467,7.52603984 2.85594467,5.33358982 Z M10.9325471,10.6659917 C10.9325471,11.0229273 11.1657605,11.2587212 11.5134604,11.2587212 L14.4180267,11.2587212 C14.7678467,11.2587212 15,11.0218457 15,10.6659917 C15,10.3101377 14.7667866,10.0732622 14.4180267,10.0732622 L11.5134604,10.0732622 C11.1931137,10.0744487 10.9337099,10.339129 10.9325471,10.6659917 L10.9325471,10.6659917 Z M14.4180267,12.3857724 L9.77072059,12.3857724 C9.42196062,12.3857724 9.18980733,12.6226479 9.18980733,12.9785019 C9.18980733,13.3332743 9.42302068,13.5712313 9.77072059,13.5712313 L14.4180267,13.5712313 C14.7678467,13.5712313 15,13.3332743 15,12.9785019 C15,12.6215663 14.7667866,12.3846908 14.4180267,12.3846908 L14.4180267,12.3857724 Z M14.4180267,14.7556086 L9.82902393,14.7556086 C9.48026396,14.7556086 9.24811067,14.9935657 9.24811067,15.3494197 C9.24811067,15.7052737 9.48026396,15.9410675 9.82902393,15.9410675 L14.4190867,15.9410675 C14.7667866,15.9410675 15,15.7031105 15,15.3472565 C14.9988341,15.019973 14.7387872,14.7551199 14.4180267,14.754527 L14.4180267,14.7556086 L14.4180267,14.7556086 Z" id="形状"></path>
            </g>
        </g>
    </g>
</svg>