<?xml version="1.0" encoding="UTF-8"?>
<svg width="30px" height="30px" viewBox="0 0 30 30" version="1.1" xmlns="http://www.w3.org/2000/svg" xmlns:xlink="http://www.w3.org/1999/xlink">
    <title>形状</title>
    <g id="页面-1" stroke="none" stroke-width="1" fill="none" fill-rule="evenodd">
        <g id="home登录后下拉框" transform="translate(-633.000000, -856.000000)" fill="#FFFFFF" fill-rule="nonzero">
            <path d="M648,856 C639.71371,856 633,862.71371 633,871 C633,879.28629 639.71371,886 648,886 C656.28629,886 663,879.28629 663,871 C663,862.71371 656.28629,856 648,856 Z M655.366935,866.27621 L652.905242,877.877016 C652.72379,878.699597 652.233871,878.899194 651.550403,878.512097 L647.800403,875.747984 L645.991935,877.489919 C645.792339,877.689516 645.622984,877.858871 645.235887,877.858871 L645.502016,874.042339 L652.451613,867.764113 C652.754032,867.497984 652.385081,867.346774 651.985887,867.612903 L643.397177,873.020161 L639.695565,871.864919 C638.891129,871.610887 638.872984,871.060484 639.864919,870.673387 L654.326613,865.096774 C654.997984,864.854839 655.584677,865.260081 655.366935,866.27621 L655.366935,866.27621 Z" id="形状"></path>
        </g>
    </g>
</svg>