<?xml version="1.0" encoding="UTF-8"?>
<svg width="8px" height="16px" viewBox="0 0 8 16" version="1.1" xmlns="http://www.w3.org/2000/svg" xmlns:xlink="http://www.w3.org/1999/xlink">
    <title>向右</title>
    <g id="页面-1" stroke="none" stroke-width="1" fill="none" fill-rule="evenodd">
        <g id="My-profiley已经点" transform="translate(-982.000000, -1663.000000)" fill="#FFFFFF" fill-rule="nonzero">
            <g id="编组-8" transform="translate(350.000000, 877.000000)">
                <g id="编组-6" transform="translate(559.000000, 773.000000)">
                    <g id="向右" transform="translate(73.000000, 13.000000)">
                        <path d="M0.105622198,15.9831866 L7.71791383,8.66976539 C8.06679112,8.3305195 8.09575479,7.77607851 7.78416202,7.40160047 L7.71791383,7.33149772 L0.10624718,0.0174449517 C0.0881785916,0 0.0615929097,-0.00483250174 0.0386268674,0.00505475587 C0.0156608252,0.0149420135 0.000719994343,0.0376912018 0.000625071535,0.0629170007 L0.000625071535,1.76811884 C0.000754912936,1.8024992 0.0147477759,1.83534057 0.0393740109,1.85906294 L6.42919911,8.00031578 L0.038749028,14.1403055 C0.0139659806,14.1641794 0,14.1972814 0,14.2318812 L0,15.937083 C9.50114503e-05,15.9623088 0.0150358423,15.985058 0.0380018845,15.9949452 C0.0609679268,16.0048325 0.0875536087,16 0.105622198,15.982555 L0.105622198,15.9831866 Z" id="路径"></path>
                    </g>
                </g>
            </g>
        </g>
    </g>
</svg>