<?xml version="1.0" encoding="UTF-8"?>
<svg width="30px" height="30px" viewBox="0 0 30 30" version="1.1" xmlns="http://www.w3.org/2000/svg" xmlns:xlink="http://www.w3.org/1999/xlink">
    <title>推特</title>
    <g id="页面-1" stroke="none" stroke-width="1" fill="none" fill-rule="evenodd">
        <g id="home未登录" transform="translate(-441.000000, -856.000000)" fill="#FFFFFF">
            <path d="M456,856 C464.284271,856 471,862.715729 471,871 C471,879.284271 464.284271,886 456,886 C447.715729,886 441,879.284271 441,871 C441,862.715729 447.715729,856 456,856 Z M453.011874,863 L447,863 L454.183231,872.297692 L447.375191,880 L450.290396,880 L455.544848,874.056968 L460.136977,880 L466,880 L458.512029,870.201032 L464.877069,863 L461.963598,863 L457.162757,868.432154 L453.011874,863 Z M452.134645,864.635494 L462.55547,878.273846 L460.941091,878.273846 L450.402235,864.635494 L452.134645,864.635494 Z" id="推特"></path>
        </g>
    </g>
</svg>