<?xml version="1.0" encoding="UTF-8"?>
<svg width="16px" height="16px" viewBox="0 0 16 16" version="1.1" xmlns="http://www.w3.org/2000/svg" xmlns:xlink="http://www.w3.org/1999/xlink">
    <title>提示</title>
    <g id="页面-1" stroke="none" stroke-width="1" fill="none" fill-rule="evenodd">
        <g id="My-profiley详情弹窗" transform="translate(-1489.000000, -163.000000)" fill="#FFFFFF" fill-rule="nonzero">
            <g id="提示" transform="translate(1489.000000, 163.000000)">
                <path d="M15.108431,4.32611124 C15.0119486,4.13848559 14.8171971,4.0080411 14.5920715,4.0080411 C14.2740369,4.0080411 14.0167504,4.26535627 14.0167504,4.58163949 C14.0167504,4.68885414 14.0471245,4.79070806 14.0989391,4.87647979 L14.0971524,4.8782667 C14.5777778,5.814608 14.8493579,6.87603306 14.8493579,8 C14.8493579,11.7811034 11.7833613,14.8474425 8.00268007,14.8474425 C4.22199888,14.8474425 1.15421552,11.7811034 1.15421552,8 C1.15421552,4.21889658 4.22021217,1.15434443 8.00089336,1.15434443 C9.11758794,1.15434443 10.1717476,1.42238106 11.1026242,1.89591244 L11.1061977,1.8887648 C11.1883864,1.93522448 11.2848688,1.96202814 11.3867113,1.96202814 C11.704746,1.96202814 11.9620324,1.70471298 11.9620324,1.38842975 C11.9620324,1.15434443 11.8208822,0.952423498 11.6171971,0.863077954 C10.5308766,0.310922493 9.30340592,0 8.00089336,0 C3.58235623,0 0,3.58275631 0,8 C0,12.4172437 3.58235623,16 8.00089336,16 C12.4194305,16 16,12.4190306 16,8 C16,6.67589904 15.678392,5.42684834 15.108431,4.32611124 Z" id="路径"></path>
                <path d="M12.6409827,2.79115479 C12.6409827,2.99608177 12.7506382,3.18544211 12.9286432,3.2879056 C13.1066482,3.39036909 13.3259593,3.39036909 13.5039643,3.2879056 C13.6819692,3.18544211 13.7916248,2.99608177 13.7916248,2.79115479 C13.7916248,2.58622782 13.6819692,2.39686748 13.5039643,2.29440398 C13.3259593,2.19194049 13.1066482,2.19194049 12.9286432,2.29440398 C12.7506382,2.39686748 12.6409827,2.58622782 12.6409827,2.79115479 L12.6409827,2.79115479 Z" id="路径"></path>
                <path d="M7.49704076,11.4022783 C7.49704076,11.719068 7.75462077,11.9758767 8.07236181,11.9758767 C8.39010285,11.9758767 8.64768286,11.719068 8.64768286,11.4022783 C8.64768286,11.1973513 8.5380273,11.007991 8.36002234,10.9055275 C8.18201739,10.803064 7.96270623,10.803064 7.78470128,10.9055275 C7.60669632,11.007991 7.49704076,11.1973513 7.49704076,11.4022783 Z" id="路径"></path>
                <path d="M8.07236181,9.68505696 C8.386823,9.68505696 8.64232272,9.42774179 8.64232272,9.11503239 L8.64232272,4.54590127 C8.64232272,4.23319187 8.386823,3.9758767 8.07236181,3.9758767 C7.75968733,3.9758767 7.50240089,4.23140496 7.50240089,4.54590127 L7.50240089,9.11503239 C7.50240089,9.42774179 7.75790061,9.68505696 8.07236181,9.68505696 L8.07236181,9.68505696 Z" id="路径"></path>
            </g>
        </g>
    </g>
</svg>