<?xml version="1.0" encoding="UTF-8"?>
<svg width="16px" height="16px" viewBox="0 0 16 16" version="1.1" xmlns="http://www.w3.org/2000/svg" xmlns:xlink="http://www.w3.org/1999/xlink">
    <title>放大</title>
    <g id="页面-1" stroke="none" stroke-width="1" fill="none" fill-rule="evenodd" fill-opacity="0.8">
        <g id="My-profiley详情弹窗" transform="translate(-1451.000000, -1078.000000)" fill="#FFFFFF" fill-rule="nonzero">
            <g id="编组-5" transform="translate(350.000000, 746.000000)">
                <g id="编组-3备份-15" transform="translate(1081.000000, 321.000000)">
                    <g id="放大" transform="translate(20.000000, 11.000000)">
                        <path d="M12.9621734,10.4589681 L12.9621734,5.60786241 C12.9621734,4.19661882 11.8276814,3.05257985 10.4282147,3.05257985 L5.62051532,3.05257985 C4.22104857,3.05257985 3.08655662,4.19661882 3.08655662,5.60786241 L3.08655662,10.4589681 C3.08655662,11.8702116 4.22104857,13.0142506 5.62051532,13.0142506 L10.4311385,13.0142506 C11.8294633,13.0126236 12.9621734,11.869061 12.9621734,10.4589681 L12.9621734,10.4589681 Z M11.792654,10.4589681 C11.792654,10.8238851 11.6489009,11.1738561 11.3930189,11.4318914 C11.1371369,11.6899267 10.7900865,11.8348894 10.4282147,11.8348894 L5.62051532,11.8348894 C4.8669563,11.8348894 4.25607602,11.2188685 4.25607602,10.4589681 L4.25607602,5.60786241 C4.25607602,4.84796201 4.8669563,4.23194103 5.62051532,4.23194103 L10.4311385,4.23194103 C11.1846975,4.23194103 11.7955778,4.84796201 11.7955778,5.60786241 L11.792654,10.4589681 Z M0.5847597,4.26633907 C0.907713565,4.26633907 1.1695194,4.00233007 1.1695194,3.67665848 L1.1695194,1.62162162 C1.17005681,1.37720903 1.36669022,1.17936058 1.60906378,1.17936118 L3.72394469,1.17936118 C4.04689855,1.17936117 4.30870438,0.915352182 4.30870438,0.58968059 C4.30870438,0.264008998 4.04689855,0 3.72394469,0 L1.60906378,0 C0.721005321,0.000541433405 0.00107496919,0.726090441 0,1.62162162 L0,3.67665848 C0,4.00233007 0.261805836,4.26633907 0.5847597,4.26633907 L0.5847597,4.26633907 Z M14.3919108,0 L12.2780045,0 C11.9550506,0 11.6932448,0.264008998 11.6932448,0.58968059 C11.6932448,0.915352182 11.9550506,1.17936117 12.2780045,1.17936118 L14.3919108,1.17936118 C14.6339039,1.17990167 14.8299446,1.37759215 14.8304806,1.62162162 L14.8304806,3.67665848 C14.8304806,4.00233007 15.0922864,4.26633907 15.4152403,4.26633907 C15.7381942,4.26633907 16,4.00233007 16,3.67665848 L16,1.62162162 C15.998926,0.726473732 15.2795887,0.00108305974 14.3919108,0 L14.3919108,0 Z M15.4171895,11.7346437 C15.0942356,11.7346437 14.8324298,11.9986527 14.8324298,12.3243243 L14.8324298,14.3783784 C14.8318938,14.6224078 14.6358531,14.8200983 14.39386,14.8206388 L12.2780045,14.8206388 C11.9550506,14.8206388 11.6932448,15.0846478 11.6932448,15.4103194 C11.6932448,15.735991 11.9550506,16 12.2780045,16 L14.3919108,16 C15.2795887,15.9989169 15.998926,15.2735263 16,14.3783784 L16,12.3243243 C16,11.9994188 15.7393819,11.7357268 15.4171895,11.7346437 L15.4171895,11.7346437 Z M3.72394469,14.8206388 L1.60906378,14.8206388 C1.36669022,14.8206394 1.17005681,14.622791 1.1695194,14.3783784 L1.1695194,12.3243243 C1.1695194,11.9986527 0.907713565,11.7346437 0.5847597,11.7346437 C0.261805836,11.7346437 0,11.9986527 0,12.3243243 L0,14.3783784 C0.00107496919,15.2739096 0.721005321,15.9994586 1.60906378,16 L3.72394469,16 C4.04689856,16 4.30870439,15.735991 4.30870439,15.4103194 C4.30870439,15.0846478 4.04689856,14.8206388 3.72394469,14.8206388 L3.72394469,14.8206388 Z" id="形状"></path>
                    </g>
                </g>
            </g>
        </g>
    </g>
</svg>